<?xml version="1.0" encoding="utf-8" ?>
<svg baseProfile="full" height="330" version="1.1" viewBox="0,0,439,330" width="439" xmlns="http://www.w3.org/2000/svg" xmlns:ev="http://www.w3.org/2001/xml-events" xmlns:xlink="http://www.w3.org/1999/xlink"><defs /><path d="M348,278 L348,279 L350,281 L352,281 L352,280 L351,280 L350,279 L350,278 Z M206,278 L206,280 L207,281 L209,281 L209,280 L208,280 L207,279 L207,278 Z M66,273 L66,274 L71,274 L71,273 Z M351,266 L349,268 L349,269 L348,270 L348,271 L349,272 L349,273 L350,274 L351,274 L352,275 L354,275 L356,277 L356,279 L355,280 L355,281 L356,281 L357,280 L358,280 L358,275 L356,273 L353,273 L351,271 L351,270 L350,269 L352,267 L354,267 L355,268 L355,269 L356,270 L356,271 L358,271 L358,268 L357,267 L356,267 L355,266 Z M327,266 L327,268 L326,269 L326,270 L325,271 L325,273 L326,273 L326,271 L327,270 L328,271 L328,272 L329,273 L329,276 L330,277 L330,279 L331,280 L331,281 L333,281 L333,277 L332,276 L332,274 L331,273 L331,271 L330,270 L330,268 L329,267 L329,266 Z M305,266 L305,267 L306,268 L306,269 L307,269 L307,268 L308,267 L309,267 L309,266 Z M295,266 L295,267 L296,267 L297,268 L297,269 L299,271 L299,272 L300,273 L300,274 L301,275 L301,281 L303,281 L303,275 L304,274 L304,273 L305,272 L305,271 L304,271 L304,272 L303,273 L302,272 L302,271 L300,269 L300,268 L301,267 L301,266 Z M274,266 L273,267 L272,267 L270,269 L270,278 L271,279 L271,280 L272,280 L273,281 L274,281 L274,280 L273,279 L273,278 L272,277 L272,270 L273,269 L273,268 L274,267 L277,267 L279,269 L279,278 L277,280 L277,281 L279,281 L281,279 L281,277 L282,276 L282,271 L281,270 L281,269 L278,266 Z M255,266 L250,266 L250,267 L251,268 L251,279 L250,280 L250,281 L252,281 L254,279 L254,268 L255,267 Z M208,266 L206,268 L206,273 L207,274 L208,274 L209,275 L211,275 L213,277 L213,279 L212,280 L212,281 L213,281 L215,279 L215,275 L213,273 L210,273 L207,270 L207,269 L209,267 L211,267 L213,269 L213,271 L215,271 L215,269 L214,268 L214,267 L213,267 L212,266 Z M184,266 L184,267 L183,268 L183,270 L184,270 L185,271 L185,272 L186,273 L186,276 L187,277 L187,279 L188,280 L188,281 L190,281 L190,277 L189,276 L189,275 L188,274 L188,271 L187,270 L187,268 L186,267 L186,266 Z M156,266 L156,267 L157,268 L157,281 L160,281 L160,280 L159,279 L159,268 L160,267 L161,267 L161,266 Z M123,266 L114,266 L114,267 L115,268 L115,279 L114,280 L114,281 L117,281 L117,275 L118,274 L120,274 L121,275 L121,276 L122,276 L122,271 L121,271 L121,272 L120,273 L118,273 L117,272 L117,268 L118,267 L121,267 L122,268 L123,268 Z M87,266 L87,281 L90,281 L90,268 L91,267 L94,267 L95,268 L95,279 L94,280 L94,281 L95,281 L96,280 L97,280 L97,279 L98,278 L98,270 L97,269 L97,268 L95,266 Z M132,157 L132,159 L220,238 L224,238 L312,160 L312,157 L308,153 L274,127 L171,127 Z M266,179 L267,180 L267,181 L266,182 L266,183 L265,184 L265,185 L263,187 L263,188 L262,189 L262,190 L260,192 L260,193 L258,195 L258,196 L257,197 L257,198 L255,200 L255,201 L253,203 L253,204 L252,205 L252,206 L251,207 L251,208 L245,214 L244,214 L235,223 L234,223 L229,228 L228,227 L228,226 L229,225 L229,224 L230,223 L230,220 L231,219 L231,218 L232,217 L232,216 L233,215 L233,214 L235,212 L235,211 L236,210 L237,210 L237,209 L238,208 L239,208 L239,207 L241,205 L242,205 L242,204 L260,186 L260,185 L261,184 L262,184 L262,183 Z M178,179 L192,193 L192,194 L211,213 L211,214 L212,215 L212,216 L213,217 L213,219 L214,220 L214,222 L215,223 L215,224 L216,225 L216,227 L215,228 L207,220 L206,220 L198,212 L197,212 L195,210 L195,209 L193,207 L193,206 L191,204 L191,203 L190,202 L190,201 L188,199 L188,198 L187,197 L187,196 L185,194 L185,193 L184,192 L184,191 L182,189 L182,188 L181,187 L181,186 L179,184 L179,183 L177,181 L177,180 Z M222,173 L223,174 L223,177 L224,178 L224,182 L225,183 L225,190 L226,191 L226,194 L227,195 L227,202 L228,203 L228,207 L229,208 L229,214 L228,215 L228,216 L227,217 L227,219 L226,220 L226,222 L225,223 L225,225 L224,226 L224,227 L223,228 L223,229 L222,230 L221,229 L221,227 L220,226 L220,224 L219,223 L219,222 L218,221 L218,219 L217,218 L217,217 L216,216 L216,213 L215,212 L215,211 L216,210 L216,203 L217,202 L217,199 L218,198 L218,193 L219,192 L219,186 L220,185 L220,181 L221,180 L221,174 Z M304,161 L300,165 L299,165 L291,173 L290,173 L280,183 L279,183 L271,191 L270,191 L264,197 L263,196 L263,195 L265,193 L265,192 L266,191 L266,190 L267,189 L267,188 L269,186 L269,185 L270,184 L270,183 L272,181 L272,180 L274,178 L274,177 L275,176 L275,175 L277,173 L277,172 L279,170 L279,169 L280,168 L280,167 L281,166 L281,165 L283,163 L283,162 L285,160 L303,160 Z M277,160 L278,161 L262,177 L262,178 L261,179 L260,179 L260,180 L259,181 L258,181 L258,182 L241,199 L240,198 L240,197 L241,196 L241,195 L242,194 L242,192 L244,190 L244,188 L245,187 L245,186 L246,185 L246,183 L247,182 L247,181 L248,180 L248,179 L249,178 L249,176 L251,174 L251,172 L252,171 L252,170 L253,169 L253,167 L254,166 L254,165 L255,164 L255,163 L256,162 L256,161 L257,160 Z M251,160 L252,161 L251,162 L251,163 L250,164 L250,166 L249,167 L249,168 L248,169 L248,171 L246,173 L246,175 L245,176 L245,177 L244,178 L244,179 L243,180 L243,182 L242,183 L242,184 L241,185 L241,186 L240,187 L240,188 L239,189 L239,191 L238,192 L238,193 L237,194 L237,195 L236,196 L236,198 L235,199 L235,200 L234,201 L234,202 L233,203 L232,202 L232,201 L231,200 L231,197 L230,196 L230,189 L229,188 L229,185 L228,184 L228,177 L227,176 L227,172 L226,171 L226,166 L225,165 L225,161 L226,160 Z M194,160 L219,160 L220,161 L220,162 L219,163 L219,167 L218,168 L218,175 L217,176 L217,179 L216,180 L216,185 L215,186 L215,191 L214,192 L214,197 L213,198 L213,203 L212,204 L211,203 L211,202 L210,201 L210,200 L209,199 L209,197 L208,196 L208,195 L207,194 L207,193 L206,192 L206,191 L205,190 L205,188 L204,187 L204,186 L203,185 L203,184 L202,183 L202,181 L201,180 L201,179 L200,178 L200,177 L199,176 L199,175 L198,174 L198,173 L197,172 L197,170 L196,169 L196,168 L195,167 L195,165 L193,163 L193,161 Z M168,160 L187,160 L189,162 L189,163 L190,164 L190,166 L191,167 L191,168 L192,169 L192,170 L193,171 L193,173 L194,174 L194,175 L195,176 L195,177 L196,178 L196,179 L197,180 L197,182 L198,183 L198,184 L199,185 L199,186 L200,187 L200,188 L201,189 L201,191 L202,192 L202,193 L203,194 L203,195 L204,196 L204,198 L203,199 L195,191 L195,190 L176,171 L176,170 L175,170 L174,169 L174,168 L167,161 Z M141,161 L142,160 L159,160 L162,163 L162,164 L164,166 L164,167 L165,168 L165,169 L167,171 L167,172 L169,174 L169,175 L170,176 L170,177 L171,178 L171,179 L173,181 L173,182 L174,183 L174,184 L176,186 L176,187 L178,189 L178,190 L179,191 L179,192 L180,193 L180,194 L181,195 L180,196 L179,196 L171,188 L170,188 L169,187 L169,186 L168,186 L161,179 L160,179 L153,172 L152,172 L151,171 L151,170 L150,170 Z M253,147 L254,146 L255,146 L256,147 L257,147 L258,148 L259,148 L260,149 L261,149 L262,150 L263,150 L264,151 L265,151 L266,152 L267,152 L268,153 L269,153 L270,154 L271,154 L272,155 L271,156 L257,156 L256,155 L256,154 L255,153 L255,152 L254,151 L254,149 L253,148 Z M192,146 L192,147 L191,148 L191,149 L190,150 L190,152 L189,153 L189,154 L187,156 L173,156 L172,155 L173,154 L174,154 L175,153 L176,153 L177,152 L178,152 L179,151 L180,151 L181,150 L182,150 L183,149 L185,149 L187,147 L189,147 L191,145 Z M252,155 L251,156 L231,156 L230,155 L231,154 L232,154 L234,152 L235,152 L238,149 L239,149 L241,147 L242,147 L244,145 L245,145 L246,144 L247,144 L248,145 L248,147 L249,148 L249,149 L250,150 L250,152 L251,153 L251,154 Z M193,153 L194,152 L194,151 L195,150 L195,148 L197,146 L197,145 L198,144 L199,144 L201,146 L202,146 L205,149 L206,149 L208,151 L209,151 L211,153 L212,153 L214,155 L213,156 L194,156 L193,155 Z M284,142 L285,141 L286,142 L287,142 L291,146 L292,146 L295,149 L296,149 L300,153 L301,153 L303,155 L302,156 L286,156 L285,155 L285,144 L284,143 Z M160,142 L160,151 L159,152 L159,155 L158,156 L142,156 L141,155 L142,154 L143,154 L147,150 L148,150 L151,147 L152,147 L155,144 L156,144 L159,141 Z M254,140 L256,138 L257,138 L258,137 L260,137 L262,135 L264,135 L266,133 L268,133 L269,132 L270,132 L271,131 L272,131 L274,133 L275,133 L279,137 L280,137 L281,138 L281,153 L280,154 L279,154 L278,153 L277,153 L276,152 L275,152 L274,151 L273,151 L272,150 L271,150 L270,149 L269,149 L268,148 L267,148 L266,147 L265,147 L264,146 L263,146 L262,145 L261,145 L260,144 L259,144 L258,143 L257,143 L256,142 L255,142 L254,141 Z M202,141 L204,139 L205,139 L206,138 L207,138 L208,137 L209,137 L210,136 L211,136 L212,135 L213,135 L214,134 L215,134 L216,133 L218,133 L219,132 L220,132 L221,131 L224,131 L225,132 L226,132 L227,133 L228,133 L229,134 L230,134 L231,135 L233,135 L235,137 L237,137 L238,138 L239,138 L240,139 L241,139 L243,141 L242,142 L241,142 L239,144 L238,144 L236,146 L235,146 L232,149 L231,149 L229,151 L228,151 L226,153 L225,153 L223,155 L221,155 L219,153 L218,153 L216,151 L215,151 L212,148 L211,148 L209,146 L208,146 L206,144 L205,144 Z M191,140 L189,142 L188,142 L186,144 L184,144 L182,146 L180,146 L179,147 L178,147 L177,148 L176,148 L175,149 L174,149 L172,151 L170,151 L169,152 L168,152 L167,153 L166,153 L165,154 L164,154 L163,153 L163,149 L164,148 L164,138 L168,134 L169,134 L172,131 L174,131 L175,132 L176,132 L177,133 L178,133 L179,134 L180,134 L181,135 L182,135 L183,136 L184,136 L185,137 L186,137 L187,138 L188,138 L189,139 L190,139 Z M233,131 L234,130 L260,130 L261,131 L260,132 L259,132 L258,133 L257,133 L256,134 L255,134 L254,135 L253,135 L251,137 L249,137 L248,138 L247,138 L246,137 L245,137 L244,136 L243,136 L242,135 L241,135 L240,134 L238,134 L236,132 L234,132 Z M183,131 L184,130 L210,130 L211,131 L210,132 L209,132 L208,133 L207,133 L206,134 L205,134 L204,135 L203,135 L202,136 L201,136 L200,137 L198,137 L197,138 L196,138 L195,137 L194,137 L193,136 L192,136 L191,135 L190,135 L189,134 L188,134 L187,133 L186,133 L185,132 L184,132 Z M56,97 L48,106 L48,107 L43,112 L42,115 L44,115 L48,111 L51,112 L55,116 L56,116 L60,120 L61,120 L66,125 L67,125 L71,129 L72,129 L76,133 L77,133 L83,139 L83,141 L80,145 L80,146 L82,147 L82,146 L86,142 L86,141 L90,137 L90,136 L104,120 L106,116 L93,103 L92,103 L92,105 L97,110 L99,114 L99,120 L97,124 L95,126 L95,127 L92,130 L92,131 L90,132 L89,134 L88,134 L78,125 L77,125 L74,122 L73,122 L53,105 L55,101 L58,98 L58,97 Z M388,92 L385,92 L375,97 L372,97 L362,102 L360,102 L357,104 L355,104 L352,106 L347,107 L341,110 L337,110 L333,107 L331,107 L331,109 L341,120 L342,120 L341,113 L343,111 L345,111 L348,109 L353,108 L358,113 L358,114 L365,122 L363,126 L361,128 L360,131 L357,134 L355,132 L354,132 L353,130 L352,130 L351,132 L356,137 L356,138 L364,147 L365,147 L365,144 L362,140 L365,134 L367,132 L368,129 L370,127 L372,122 L377,115 L379,110 L381,108 L384,101 L388,96 L389,94 Z M377,98 L378,99 L378,100 L376,102 L376,103 L375,104 L375,105 L374,106 L374,107 L372,109 L372,110 L371,111 L371,112 L369,114 L369,115 L368,116 L368,117 L366,119 L361,114 L361,113 L356,108 L356,107 L358,105 L360,105 L361,104 L363,104 L364,103 L365,103 L366,102 L368,102 L369,101 L370,101 L371,100 L373,100 L374,99 L375,99 L376,98 Z M103,51 L103,54 L104,55 L104,59 L105,60 L105,63 L106,64 L106,67 L107,68 L107,71 L108,72 L108,75 L109,76 L109,79 L110,80 L110,83 L111,84 L111,88 L113,92 L113,96 L114,97 L114,100 L115,101 L113,106 L111,108 L111,110 L114,109 L122,103 L125,102 L124,100 L122,101 L119,101 L116,98 L116,95 L115,94 L115,91 L114,90 L114,89 L117,86 L121,84 L124,81 L130,78 L138,85 L139,85 L140,86 L140,88 L137,91 L137,93 L140,92 L148,86 L154,83 L154,81 L152,81 L150,83 L146,83 L142,79 L141,79 L138,76 L137,76 L134,73 L133,73 L123,64 L119,62 L114,57 L110,55 L106,51 Z M108,63 L109,62 L111,64 L112,64 L115,67 L116,67 L120,71 L121,71 L124,74 L125,74 L127,76 L127,77 L126,78 L125,78 L123,80 L122,80 L121,81 L120,81 L118,83 L117,83 L115,85 L114,85 L113,84 L113,83 L112,82 L112,79 L111,78 L111,74 L110,73 L110,71 L109,70 L109,66 L108,65 Z M335,48 L333,48 L332,47 L326,47 L321,49 L316,54 L316,56 L314,60 L314,63 L315,64 L316,69 L323,76 L323,77 L325,78 L328,83 L328,89 L325,94 L321,97 L314,97 L305,89 L305,87 L304,86 L304,78 L306,75 L306,72 L304,73 L303,76 L296,86 L296,88 L298,88 L301,86 L303,88 L305,93 L309,97 L315,100 L322,100 L328,97 L331,94 L334,88 L334,79 L332,75 L321,63 L321,56 L322,54 L325,51 L329,49 L332,49 L336,51 L341,56 L342,58 L342,68 L340,71 L340,73 L342,73 L350,60 L350,58 L348,58 L345,60 L343,57 L343,55 L340,51 Z M278,23 L276,25 L276,26 L274,28 L274,29 L272,31 L270,35 L267,38 L267,39 L263,44 L262,47 L257,53 L257,54 L255,56 L255,57 L253,59 L251,63 L246,67 L241,67 L240,69 L243,69 L244,70 L247,70 L248,71 L250,71 L251,72 L254,72 L256,73 L256,71 L252,68 L252,65 L256,60 L256,59 L259,56 L261,57 L264,57 L265,58 L268,58 L272,60 L275,60 L277,64 L277,74 L275,76 L273,75 L270,75 L270,77 L273,77 L277,79 L281,79 L282,80 L284,80 L285,81 L288,81 L290,82 L290,80 L284,77 L284,71 L283,70 L283,57 L282,56 L282,43 L281,42 L281,28 L280,27 L280,24 Z M273,34 L275,36 L275,47 L276,48 L276,57 L275,58 L274,58 L273,57 L269,57 L268,56 L266,56 L265,55 L262,55 L260,53 L262,51 L262,50 L264,48 L264,47 L266,45 L266,44 L268,42 L268,41 L270,39 L270,38 L272,36 L272,35 Z M230,16 L228,16 L224,22 L222,20 L216,17 L206,17 L196,22 L192,26 L188,32 L188,34 L186,38 L186,50 L187,51 L187,54 L190,60 L200,69 L208,72 L216,72 L225,68 L230,62 L230,60 L232,57 L232,50 L230,51 L230,57 L227,63 L219,69 L208,69 L204,67 L198,61 L197,58 L195,56 L195,52 L194,51 L194,47 L193,46 L193,39 L194,38 L194,34 L196,29 L198,26 L204,21 L209,19 L215,19 L221,22 L225,26 L228,32 L229,37 L231,37 Z" fill="#bacfdf" fill-rule="evenodd" stroke="none" /></svg>